<?xml version="1.0" encoding="UTF-8"?>
<svg id="Calque_2" data-name="Calque 2" xmlns="http://www.w3.org/2000/svg" xmlns:xlink="http://www.w3.org/1999/xlink" viewBox="0 0 121.76 121.76">
  <defs>
    <style>
      .cls-1 {
        fill: #efe8e4;
      }

      .cls-1, .cls-2, .cls-3, .cls-4 {
        stroke-width: 0px;
      }

      .cls-2 {
        fill: #bc8d69;
      }

      .cls-3 {
        fill: url(#Nouvelle_nuance_de_dégradé_5);
      }

      .cls-4 {
        fill: #35181e;
      }
    </style>
    <linearGradient id="Nouvelle_nuance_de_dégradé_5" data-name="Nouvelle nuance de dégradé 5" x1="-953.9" y1="-127.73" x2="-909.14" y2="-127.73" gradientTransform="translate(993.63 206.64)" gradientUnits="userSpaceOnUse">
      <stop offset="0" stop-color="#916223"/>
      <stop offset=".28" stop-color="#d6b363"/>
      <stop offset=".53" stop-color="#fff4bf"/>
      <stop offset=".58" stop-color="#f4e6b0"/>
      <stop offset=".67" stop-color="#d9c18a"/>
      <stop offset=".79" stop-color="#ae874d"/>
      <stop offset=".8" stop-color="#a98046"/>
      <stop offset="1" stop-color="#a16a30"/>
    </linearGradient>
  </defs>
  <g id="Calque_1-2" data-name="Calque 1">
    <g>
      <rect class="cls-4" width="121.76" height="121.76"/>
      <g>
        <g>
          <path class="cls-1" d="M28.45,69.75l-12.15-31.67h4.48l10.1,27.09,10.08-27.09h4.63l-12.15,31.67h-4.99Z"/>
          <path class="cls-1" d="M79.37,69.75l12.01-31.67h4.83l12.07,31.67h-4.53l-2.88-7.95h-14.15l-2.96,7.95h-4.39ZM88.08,58.19h11.52l-5.77-16-5.75,16Z"/>
          <path class="cls-1" d="M57.41,66.1s8.01-7.89,9.25-9.13c2.03-2.03,5.88-6.11,4.94-11.28-1.11-6.13-6.75-7.26-6.75-7.26,0,0-6.5-1.56-12.94,1.8v4.25s3.28-2.84,9.57-2.77c6.05.06,6.39,5.05,6.36,5.92-.06,1.66-.39,3.1-6.42,9.12-1.95,1.95-9.74,9.34-9.74,9.34v3.65h20.24v-3.65h-14.52Z"/>
        </g>
        <g>
          <path class="cls-2" d="M44.34,91.79l-.05.04c-.23.2-.56.39-1,.57-.93.38-1.97.35-2.85-.09-.48-.24-.85-.6-1.1-1.09-.25-.48-.37-1.08-.37-1.79,0-.57.1-1.11.31-1.6.12-.29.29-.56.51-.8.22-.25.52-.45.87-.59s.78-.22,1.26-.22c.4,0,.78.07,1.12.21.34.14.61.34.79.58.16.21.3.49.41.83l.64-.18c-.13-.43-.3-.79-.52-1.07-.24-.3-.57-.54-1-.71-.43-.17-.92-.26-1.45-.26-.74,0-1.4.15-1.96.46-.56.3-.99.76-1.29,1.38-.3.62-.45,1.31-.45,2.03s.15,1.4.46,1.98c.3.58.75,1.03,1.34,1.34.59.31,1.26.47,1.99.47.54,0,1.07-.1,1.59-.29.49-.19.98-.47,1.45-.83v-2.64h-2.96v.62h2.26v1.64Z"/>
          <path class="cls-2" d="M53.35,90.3c-.13-.11-.32-.23-.58-.36l-.43-.21.48-.07c.7-.1,1.22-.32,1.55-.67.33-.35.49-.77.49-1.28,0-.39-.1-.76-.3-1.08-.2-.32-.46-.54-.78-.67-.34-.13-.85-.2-1.51-.2h-3.26v7.4h.73v-3.41h1.33c.28,0,.47.01.6.04.18.04.35.12.51.22.17.11.35.29.55.55s.45.61.74,1.07l.97,1.53h.93l-1.19-1.87c-.26-.4-.53-.73-.82-.99ZM52.06,89.16h-2.33v-2.83h2.58c.6,0,1.06.13,1.35.39.3.26.45.6.45,1.01,0,.28-.08.53-.23.77-.15.24-.38.41-.67.52-.28.1-.65.15-1.14.15Z"/>
          <path class="cls-2" d="M63.96,86.12c-.54-.32-1.16-.49-1.84-.49-1.04,0-1.89.35-2.55,1.04-.66.69-.99,1.66-.99,2.9,0,.65.14,1.27.43,1.86.28.58.7,1.04,1.24,1.37.54.33,1.17.5,1.86.5.64,0,1.25-.15,1.8-.46.55-.3.98-.75,1.28-1.34.3-.59.46-1.27.46-2.02s-.15-1.42-.43-2c-.28-.58-.7-1.03-1.25-1.36ZM64.11,91.86c-.52.57-1.19.85-2,.85s-1.46-.28-1.98-.85c-.52-.56-.79-1.33-.79-2.29,0-1.19.28-2.06.82-2.58.54-.52,1.2-.78,1.96-.78.53,0,1.02.14,1.45.41.43.27.76.66.98,1.15.22.48.33,1.05.33,1.7,0,1.02-.26,1.83-.78,2.39Z"/>
          <path class="cls-2" d="M71.04,92.39c-.33-.19-.57-.46-.7-.81-.13-.33-.2-.84-.2-1.53v-4.29h-.73v4.3c0,.79.09,1.42.28,1.87.18.44.48.77.91,1.01.43.24,1.01.36,1.7.36s1.29-.14,1.72-.41c.43-.27.72-.62.89-1.04.17-.44.25-1.04.25-1.79v-4.3h-.73v4.29c0,1.01-.17,1.68-.52,2.06-.35.37-.92.55-1.71.55-.46,0-.86-.09-1.18-.27Z"/>
          <path class="cls-2" d="M84.66,86.86c-.14-.29-.33-.52-.57-.69-.24-.16-.54-.28-.89-.34-.26-.05-.65-.07-1.15-.07h-2.75v7.4h.73v-3.13h2.12c1.04,0,1.76-.21,2.15-.63.39-.42.59-.95.59-1.56,0-.36-.07-.69-.22-.98ZM83.66,89.02c-.31.27-.8.4-1.5.4h-2.13v-3.04h2.11c.48,0,.8.02.99.07.3.08.54.25.72.51.18.25.27.56.27.91,0,.49-.16.87-.46,1.14Z"/>
        </g>
        <rect class="cls-3" x="39.73" y="78.4" width="44.76" height="1.03"/>
      </g>
    </g>
  </g>
</svg>