<?xml version="1.0" encoding="UTF-8"?>
<svg id="Calque_2" data-name="Calque 2" xmlns="http://www.w3.org/2000/svg" xmlns:xlink="http://www.w3.org/1999/xlink" viewBox="0 0 114.16 42.29">
  <defs>
    <style>
      .cls-1 {
        fill: #efe8e4;
      }

      .cls-1, .cls-2, .cls-3, .cls-4 {
        stroke-width: 0px;
      }

      .cls-2 {
        fill: #bc8d69;
      }

      .cls-3 {
        fill: url(#Nouvelle_nuance_de_dégradé_5);
      }

      .cls-4 {
        fill: url(#Nouvelle_nuance_de_dégradé_5-2);
      }
    </style>
    <linearGradient id="Nouvelle_nuance_de_dégradé_5" data-name="Nouvelle nuance de dégradé 5" x1="-275.67" y1="-1781.1" x2="-161.88" y2="-1781.1" gradientTransform="translate(-161.88 -1741.47) rotate(-180)" gradientUnits="userSpaceOnUse">
      <stop offset="0" stop-color="#916223"/>
      <stop offset=".28" stop-color="#d6b363"/>
      <stop offset=".53" stop-color="#fff4bf"/>
      <stop offset=".58" stop-color="#f4e6b0"/>
      <stop offset=".67" stop-color="#d9c18a"/>
      <stop offset=".79" stop-color="#ae874d"/>
      <stop offset=".8" stop-color="#a98046"/>
      <stop offset="1" stop-color="#a16a30"/>
    </linearGradient>
    <linearGradient id="Nouvelle_nuance_de_dégradé_5-2" data-name="Nouvelle nuance de dégradé 5" x1=".38" y1="39.62" x2="114.16" y2="39.62" gradientTransform="matrix(1,0,0,1,0,0)" xlink:href="#Nouvelle_nuance_de_dégradé_5"/>
  </defs>
  <g id="Calque_1-2" data-name="Calque 1">
    <g>
      <g>
        <path class="cls-1" d="M24.59,30.58L12.86,0h4.33l9.76,26.16L36.67,0h4.48l-11.74,30.58h-4.82Z"/>
        <path class="cls-1" d="M73.77,30.58L85.36,0h4.66l11.66,30.58h-4.37l-2.78-7.68h-13.66l-2.86,7.68h-4.24ZM82.17,19.42h11.13l-5.57-15.45-5.56,15.45Z"/>
        <path class="cls-1" d="M52.56,27.06s7.74-7.62,8.93-8.82c1.96-1.96,5.68-5.9,4.77-10.89-1.07-5.92-6.51-7.01-6.51-7.01,0,0-6.28-1.5-12.49,1.74v4.11s3.17-2.74,9.24-2.68,6.17,4.88,6.14,5.71c-.06,1.61-.38,2.99-6.19,8.81-1.89,1.89-9.41,9.02-9.41,9.02v3.53h19.54v-3.53h-14.02Z"/>
      </g>
      <g>
        <g>
          <path class="cls-2" d="M45.43,41.26l-.03.03c-.16.14-.39.27-.68.39-.64.26-1.35.24-1.95-.06-.33-.16-.58-.41-.75-.75-.17-.33-.25-.74-.25-1.23,0-.39.07-.76.21-1.1.08-.2.2-.39.35-.55.15-.17.35-.31.6-.41s.54-.15.87-.15c.28,0,.53.05.77.15.23.1.42.23.54.4.11.14.21.34.28.57l.44-.12c-.09-.3-.21-.54-.35-.73-.16-.21-.39-.37-.68-.49-.3-.12-.63-.18-1-.18-.51,0-.96.11-1.35.31-.38.21-.68.52-.88.95-.21.43-.31.9-.31,1.39s.1.96.31,1.36c.21.4.51.71.92.92.41.21.87.32,1.37.32.37,0,.74-.07,1.09-.2.34-.13.67-.32,1-.57v-1.81h-2.03v.42h1.55v1.13Z"/>
          <path class="cls-2" d="M51.61,40.24c-.09-.08-.22-.16-.4-.25l-.3-.14.33-.04c.48-.07.84-.22,1.06-.46.23-.24.34-.53.34-.88,0-.27-.07-.52-.2-.74-.13-.22-.32-.37-.54-.46-.23-.09-.58-.13-1.04-.13h-2.24v5.08h.5v-2.34h.91c.19,0,.32,0,.41.03.12.03.24.08.35.15.12.07.24.2.38.38s.31.42.51.74l.67,1.05h.64l-.82-1.28c-.18-.27-.37-.5-.56-.68ZM50.73,39.46h-1.6v-1.94h1.77c.42,0,.73.09.92.27.2.18.31.41.31.69,0,.19-.05.37-.16.53-.1.16-.26.28-.46.36-.19.07-.45.1-.78.1Z"/>
          <path class="cls-2" d="M58.9,37.37c-.37-.22-.8-.33-1.27-.33-.71,0-1.3.24-1.75.71-.45.47-.68,1.14-.68,1.99,0,.45.1.88.29,1.27.19.4.48.71.85.94.37.23.8.34,1.28.34.44,0,.85-.11,1.23-.31.38-.21.67-.52.88-.92.21-.41.31-.87.31-1.39s-.1-.97-.3-1.37c-.2-.4-.48-.71-.86-.93ZM58.99,41.31c-.36.39-.82.59-1.37.59s-1-.2-1.36-.58c-.36-.38-.54-.91-.54-1.57,0-.82.19-1.42.57-1.77.37-.36.83-.54,1.34-.54.36,0,.7.09.99.28.3.19.52.45.67.79.15.33.23.72.23,1.17,0,.7-.18,1.25-.54,1.64Z"/>
          <path class="cls-2" d="M63.75,41.68c-.23-.13-.39-.32-.48-.55-.09-.23-.13-.57-.13-1.05v-2.95h-.5v2.95c0,.54.06.98.19,1.28.13.3.33.53.63.69.3.16.69.24,1.17.24s.88-.09,1.18-.28c.29-.18.5-.42.61-.71.11-.3.17-.71.17-1.23v-2.95h-.5v2.95c0,.69-.12,1.16-.35,1.41-.24.25-.63.38-1.17.38-.32,0-.59-.06-.81-.19Z"/>
          <path class="cls-2" d="M73.1,37.88c-.1-.2-.23-.36-.39-.47-.16-.11-.37-.19-.61-.23-.18-.03-.44-.05-.79-.05h-1.89v5.08h.5v-2.15h1.45c.71,0,1.21-.15,1.47-.43.27-.29.4-.65.4-1.07,0-.25-.05-.47-.15-.68ZM72.41,39.36c-.21.19-.55.28-1.03.28h-1.46v-2.09h1.45c.33,0,.55.02.68.05.21.06.37.17.5.35.12.17.19.38.19.62,0,.33-.11.6-.32.78Z"/>
        </g>
        <g>
          <rect class="cls-3" y="39.1" width="35.81" height="1.05"/>
          <rect class="cls-4" x="78.36" y="39.1" width="35.81" height="1.05"/>
        </g>
      </g>
    </g>
  </g>
</svg>