<?xml version="1.0" encoding="UTF-8"?>
<svg id="Calque_2" data-name="Calque 2" xmlns="http://www.w3.org/2000/svg" xmlns:xlink="http://www.w3.org/1999/xlink" viewBox="0 0 186.44 38.56">
  <defs>
    <style>
      .cls-1 {
        fill: #efe8e4;
      }

      .cls-1, .cls-2, .cls-3, .cls-4, .cls-5, .cls-6 {
        stroke-width: 0px;
      }

      .cls-2 {
        fill: #ccbcb4;
      }

      .cls-3 {
        fill: #aa7d58;
      }

      .cls-4 {
        fill: none;
      }

      .cls-5 {
        fill: #bc8d69;
      }

      .cls-6 {
        fill: url(#Nouvelle_nuance_de_dégradé_5);
      }
    </style>
    <linearGradient id="Nouvelle_nuance_de_dégradé_5" data-name="Nouvelle nuance de dégradé 5" x1="-296.71" y1="597.55" x2="-258.15" y2="597.55" gradientTransform="translate(-516.37 -258.15) rotate(-90)" gradientUnits="userSpaceOnUse">
      <stop offset="0" stop-color="#916223"/>
      <stop offset=".28" stop-color="#d6b363"/>
      <stop offset=".53" stop-color="#fff4bf"/>
      <stop offset=".58" stop-color="#f4e6b0"/>
      <stop offset=".67" stop-color="#d9c18a"/>
      <stop offset=".79" stop-color="#ae874d"/>
      <stop offset=".8" stop-color="#a98046"/>
      <stop offset="1" stop-color="#a16a30"/>
    </linearGradient>
  </defs>
  <g id="Calque_1-2" data-name="Calque 1">
    <g>
      <g>
        <g>
          <path class="cls-1" d="M91.49,22.72l-1.97-5.09h.73l1.32,3.69c.11.3.2.57.27.83.08-.28.17-.55.27-.83l1.37-3.69h.69l-1.99,5.09h-.69Z"/>
          <path class="cls-1" d="M97.12,22.72v-5.09h.67v5.09h-.67Z"/>
          <path class="cls-1" d="M100.98,21.08l.63-.06c.03.25.1.46.21.63s.28.29.51.4c.23.1.49.15.78.15.26,0,.48-.04.68-.11.2-.08.34-.18.44-.31.1-.13.14-.28.14-.44s-.05-.3-.14-.42-.25-.22-.46-.3c-.14-.05-.44-.14-.91-.25s-.79-.22-.98-.32c-.24-.13-.42-.29-.54-.47-.12-.19-.18-.4-.18-.63,0-.26.07-.5.22-.72.15-.22.36-.39.64-.51.28-.12.59-.17.93-.17.38,0,.71.06,1,.18.29.12.51.3.66.54.15.24.24.5.25.8l-.65.05c-.03-.32-.15-.56-.35-.73s-.5-.25-.89-.25-.7.07-.89.22-.28.33-.28.54c0,.18.07.33.2.45.13.12.47.24,1.01.36s.92.23,1.13.32c.3.14.51.31.66.52.14.21.21.45.21.72s-.08.53-.23.76c-.15.24-.38.43-.67.56-.29.13-.62.2-.98.2-.46,0-.85-.07-1.16-.2-.31-.13-.55-.34-.73-.61-.18-.27-.27-.57-.28-.91Z"/>
          <path class="cls-1" d="M108.29,22.72v-5.09h.67v5.09h-.67Z"/>
          <path class="cls-1" d="M112.17,20.24c0-.84.23-1.5.68-1.98.45-.48,1.04-.72,1.76-.72.47,0,.89.11,1.27.34.38.22.66.54.86.94.2.4.3.86.3,1.37s-.1.98-.31,1.38c-.21.41-.5.72-.88.92-.38.21-.79.31-1.23.31-.48,0-.91-.12-1.28-.35s-.66-.55-.86-.95-.29-.82-.29-1.27ZM112.87,20.25c0,.61.16,1.1.49,1.45.33.35.74.53,1.24.53s.92-.18,1.25-.53.49-.86.49-1.52c0-.41-.07-.78-.21-1.08-.14-.31-.34-.55-.61-.72-.27-.17-.57-.25-.91-.25-.48,0-.89.16-1.23.49-.34.33-.52.87-.52,1.64Z"/>
          <path class="cls-1" d="M120.13,22.72v-5.09h.69l2.67,3.99v-3.99h.65v5.09h-.69l-2.67-4v4h-.65Z"/>
          <path class="cls-1" d="M132.86,22.72v-4.49h-1.68v-.6h4.03v.6h-1.68v4.49h-.67Z"/>
          <path class="cls-1" d="M137.81,20.24c0-.84.23-1.5.68-1.98.45-.48,1.04-.72,1.76-.72.47,0,.89.11,1.27.34.38.22.66.54.86.94.2.4.3.86.3,1.37s-.1.98-.31,1.38c-.21.41-.5.72-.88.92-.38.21-.79.31-1.23.31-.48,0-.91-.12-1.28-.35s-.66-.55-.86-.95-.29-.82-.29-1.27ZM138.5,20.25c0,.61.16,1.1.49,1.45.33.35.74.53,1.24.53s.92-.18,1.25-.53.49-.86.49-1.52c0-.41-.07-.78-.21-1.08-.14-.31-.34-.55-.61-.72-.27-.17-.57-.25-.91-.25-.48,0-.89.16-1.23.49-.34.33-.52.87-.52,1.64Z"/>
          <path class="cls-1" d="M149.02,22.72l1.95-5.09h.73l2.08,5.09h-.77l-.59-1.54h-2.13l-.56,1.54h-.71ZM150.49,20.63h1.72l-.53-1.41c-.16-.43-.28-.78-.36-1.05-.06.33-.16.65-.27.97l-.56,1.49Z"/>
          <path class="cls-1" d="M160.18,20.93l.67.17c-.14.55-.39.97-.76,1.26-.37.29-.81.44-1.34.44s-.99-.11-1.34-.33c-.34-.22-.6-.55-.78-.97-.18-.42-.27-.88-.27-1.36,0-.53.1-.99.3-1.39.2-.39.49-.69.86-.9.37-.2.78-.31,1.23-.31.51,0,.94.13,1.28.39s.59.62.72,1.09l-.66.16c-.12-.37-.29-.64-.51-.81-.22-.17-.51-.25-.85-.25-.39,0-.72.09-.98.28-.26.19-.45.44-.55.75-.11.32-.16.64-.16.98,0,.43.06.81.19,1.13.13.32.32.56.59.72.27.16.55.24.86.24.38,0,.7-.11.96-.33.26-.22.44-.54.53-.97Z"/>
          <path class="cls-1" d="M165.2,22.72v-4.49h-1.68v-.6h4.03v.6h-1.68v4.49h-.67Z"/>
          <path class="cls-1" d="M170.59,22.72v-5.09h.67v5.09h-.67Z"/>
          <path class="cls-1" d="M174.48,20.24c0-.84.23-1.5.68-1.98.45-.48,1.04-.72,1.76-.72.47,0,.89.11,1.27.34.38.22.66.54.86.94.2.4.3.86.3,1.37s-.1.98-.31,1.38c-.21.41-.5.72-.88.92-.38.21-.79.31-1.23.31-.48,0-.91-.12-1.28-.35s-.66-.55-.86-.95-.29-.82-.29-1.27ZM175.17,20.25c0,.61.16,1.1.49,1.45.33.35.74.53,1.24.53s.92-.18,1.25-.53.49-.86.49-1.52c0-.41-.07-.78-.21-1.08-.14-.31-.34-.55-.61-.72-.27-.17-.57-.25-.91-.25-.48,0-.89.16-1.23.49-.34.33-.52.87-.52,1.64Z"/>
          <path class="cls-1" d="M182.43,22.72v-5.09h.69l2.67,3.99v-3.99h.65v5.09h-.69l-2.67-4v4h-.65Z"/>
        </g>
        <rect class="cls-2" x="104.12" y="29.95" width="67.71" height=".28"/>
        <rect class="cls-3" x="104.12" y="29.95" width="67.71" height=".28"/>
        <rect class="cls-3" x="104.12" y="9.46" width="67.71" height=".28"/>
      </g>
      <g>
        <g>
          <path class="cls-1" d="M9.92,27.56L0,1.71h3.66l8.25,22.11L20.13,1.71h3.78l-9.92,25.85h-4.07Z"/>
          <path class="cls-1" d="M51.48,27.56L61.29,1.71h3.94l9.85,25.85h-3.7l-2.35-6.49h-11.55l-2.42,6.49h-3.59ZM58.59,18.13h9.4l-4.71-13.06-4.7,13.06Z"/>
          <path class="cls-1" d="M33.56,24.58s6.54-6.44,7.55-7.45c1.66-1.66,4.8-4.99,4.04-9.2-.91-5-5.51-5.92-5.51-5.92,0,0-5.31-1.27-10.56,1.47v3.47s2.68-2.32,7.81-2.26,5.22,4.12,5.19,4.83c-.05,1.36-.32,2.53-5.24,7.45-1.59,1.59-7.95,7.62-7.95,7.62v2.98h16.52v-2.98h-11.85Z"/>
        </g>
        <g>
          <path class="cls-4" d="M38.4,33.18c-.26-.17-.56-.25-.89-.25-.47,0-.87.16-1.21.48-.33.32-.5.87-.5,1.63,0,.61.16,1.09.49,1.43.33.35.72.52,1.21.52s.9-.17,1.22-.52c.32-.35.48-.86.48-1.51,0-.41-.07-.78-.21-1.08-.14-.3-.34-.54-.6-.7Z"/>
          <path class="cls-4" d="M31.8,33.77c0-.22-.08-.4-.24-.54-.16-.14-.43-.22-.79-.22h-1.57v1.55h1.4c.31,0,.55-.03.71-.09.16-.06.28-.15.36-.28.08-.13.12-.27.12-.42Z"/>
          <path class="cls-4" d="M51.87,33.09c-.11-.03-.32-.04-.62-.04h-1.25v1.69h1.26c.42,0,.73-.08.89-.23.17-.15.25-.36.25-.63,0-.2-.05-.37-.15-.51-.1-.14-.22-.23-.39-.27Z"/>
          <path class="cls-5" d="M25.31,36.56l-.03.03c-.16.14-.39.27-.68.39-.64.26-1.35.24-1.95-.06-.33-.16-.58-.41-.75-.75-.17-.33-.25-.74-.25-1.23,0-.39.07-.76.21-1.1.08-.2.2-.39.35-.55.15-.17.35-.31.6-.41s.54-.15.87-.15c.28,0,.53.05.77.15.23.1.42.23.54.4.11.14.21.34.28.57l.44-.12c-.09-.3-.21-.54-.35-.73-.16-.21-.39-.37-.68-.49-.3-.12-.63-.18-1-.18-.51,0-.96.11-1.35.31-.38.21-.68.52-.88.95-.21.43-.31.9-.31,1.39s.1.96.31,1.36c.21.4.51.71.92.92.41.21.87.32,1.37.32.37,0,.74-.07,1.09-.2.34-.13.67-.32,1-.57v-1.81h-2.03v.42h1.55v1.13Z"/>
          <path class="cls-5" d="M31.49,35.54c-.09-.08-.22-.16-.4-.25l-.3-.14.33-.04c.48-.07.84-.22,1.06-.46.23-.24.34-.53.34-.88,0-.27-.07-.52-.2-.74-.13-.22-.32-.37-.54-.46-.23-.09-.58-.13-1.04-.13h-2.24v5.08h.5v-2.34h.91c.19,0,.32,0,.41.03.12.03.24.08.35.15.12.07.24.2.38.38s.31.42.51.74l.67,1.05h.64l-.82-1.28c-.18-.27-.37-.5-.56-.68ZM30.6,34.76h-1.6v-1.94h1.77c.42,0,.73.09.92.27.2.18.31.41.31.69,0,.19-.05.37-.16.53-.1.16-.26.28-.46.36-.19.07-.45.1-.78.1Z"/>
          <path class="cls-5" d="M38.77,32.67c-.37-.22-.8-.33-1.27-.33-.71,0-1.3.24-1.75.71-.45.47-.68,1.14-.68,1.99,0,.45.1.88.29,1.27.19.4.48.71.85.94.37.23.8.34,1.28.34.44,0,.85-.11,1.23-.31.38-.21.67-.52.88-.92.21-.41.31-.87.31-1.39s-.1-.97-.3-1.37c-.2-.4-.48-.71-.86-.93ZM38.87,36.61c-.36.39-.82.59-1.37.59s-1-.2-1.36-.58c-.36-.38-.54-.91-.54-1.57,0-.82.19-1.42.57-1.77.37-.36.83-.54,1.34-.54.36,0,.7.09.99.28.3.19.52.45.67.79.15.33.23.72.23,1.17,0,.7-.18,1.25-.54,1.64Z"/>
          <path class="cls-5" d="M43.63,36.98c-.23-.13-.39-.32-.48-.55-.09-.23-.13-.57-.13-1.05v-2.95h-.5v2.95c0,.54.06.98.19,1.28.13.3.33.53.63.69.3.16.69.24,1.17.24s.88-.09,1.18-.28c.29-.18.5-.42.61-.71.11-.3.17-.71.17-1.23v-2.95h-.5v2.95c0,.69-.12,1.16-.35,1.41-.24.25-.63.38-1.17.38-.32,0-.59-.06-.81-.19Z"/>
          <path class="cls-5" d="M52.97,33.18c-.1-.2-.23-.36-.39-.47-.16-.11-.37-.19-.61-.23-.18-.03-.44-.05-.79-.05h-1.89v5.08h.5v-2.15h1.45c.71,0,1.21-.15,1.47-.43.27-.29.4-.65.4-1.07,0-.25-.05-.47-.15-.68ZM52.29,34.66c-.21.19-.55.28-1.03.28h-1.46v-2.09h1.45c.33,0,.55.02.68.05.21.06.37.17.5.35.12.17.19.38.19.62,0,.33-.11.6-.32.78Z"/>
        </g>
        <rect class="cls-6" x="80.74" width=".89" height="38.56"/>
      </g>
    </g>
  </g>
</svg>