<?xml version="1.0" encoding="UTF-8"?>
<svg id="Calque_2" data-name="Calque 2" xmlns="http://www.w3.org/2000/svg" xmlns:xlink="http://www.w3.org/1999/xlink" viewBox="0 0 136.07 58.82">
  <defs>
    <style>
      .cls-1 {
        fill: #000;
      }

      .cls-1, .cls-2, .cls-3, .cls-4 {
        stroke-width: 0px;
      }

      .cls-2 {
        fill: url(#CUIVRE-2);
      }

      .cls-3 {
        fill: #aa7d58;
      }

      .cls-4 {
        fill: url(#CUIVRE);
      }
    </style>
    <linearGradient id="CUIVRE" x1="161.12" y1="28.2" x2="274.91" y2="28.2" gradientTransform="translate(285.67 67.82) rotate(-180)" gradientUnits="userSpaceOnUse">
      <stop offset="0" stop-color="#461e18"/>
      <stop offset=".33" stop-color="#89542e"/>
      <stop offset=".56" stop-color="#e7d7ce"/>
      <stop offset=".79" stop-color="#b18c72"/>
      <stop offset=".96" stop-color="#89542e"/>
    </linearGradient>
    <linearGradient id="CUIVRE-2" data-name="CUIVRE" x1="11.14" y1="39.62" x2="124.93" y2="39.62" gradientTransform="matrix(1,0,0,1,0,0)" xlink:href="#CUIVRE"/>
  </defs>
  <g id="Calque_1-2" data-name="Calque 1">
    <g>
      <g>
        <path class="cls-1" d="M2.44,58.71l-2.44-6.3h.9l1.64,4.58c.13.37.24.71.33,1.03.1-.34.21-.69.34-1.03l1.7-4.58h.85l-2.47,6.3h-.86Z"/>
        <path class="cls-1" d="M10.48,58.71v-6.3h.83v6.3h-.83Z"/>
        <path class="cls-1" d="M16.33,56.69l.79-.07c.04.32.12.57.26.78s.35.37.63.49c.29.12.61.19.97.19.32,0,.6-.05.84-.14.24-.09.42-.22.54-.39.12-.16.18-.34.18-.54s-.06-.37-.17-.52-.3-.27-.57-.37c-.17-.07-.54-.17-1.12-.31s-.98-.27-1.22-.39c-.3-.16-.52-.35-.67-.59-.15-.23-.22-.49-.22-.78,0-.32.09-.62.27-.89.18-.28.44-.49.79-.63.35-.14.73-.22,1.16-.22.47,0,.88.08,1.24.23.36.15.63.37.82.66.19.29.29.62.31.99l-.8.06c-.04-.4-.19-.7-.44-.9s-.61-.31-1.1-.31-.87.09-1.1.28-.35.41-.35.67c0,.23.08.41.24.56.16.15.58.3,1.26.45s1.14.29,1.39.4c.37.17.64.38.81.64.17.26.26.56.26.9s-.1.65-.29.95c-.19.3-.47.53-.83.69-.36.16-.76.25-1.21.25-.57,0-1.05-.08-1.43-.25-.39-.17-.69-.42-.91-.75-.22-.33-.33-.71-.35-1.13Z"/>
        <path class="cls-1" d="M26.46,58.71v-6.3h.83v6.3h-.83Z"/>
        <path class="cls-1" d="M32.33,55.64c0-1.05.28-1.86.84-2.46.56-.59,1.29-.89,2.17-.89.58,0,1.11.14,1.57.42.47.28.82.67,1.07,1.16.25.5.37,1.06.37,1.69s-.13,1.21-.39,1.71c-.26.5-.62.89-1.1,1.15-.47.26-.98.39-1.53.39-.59,0-1.12-.14-1.59-.43s-.82-.68-1.06-1.17-.36-1.02-.36-1.57ZM33.19,55.66c0,.76.2,1.36.61,1.79.41.44.92.66,1.54.66s1.14-.22,1.55-.66.61-1.07.61-1.88c0-.51-.09-.96-.26-1.34-.17-.38-.43-.68-.76-.89-.33-.21-.71-.32-1.12-.32-.59,0-1.1.2-1.52.61-.43.41-.64,1.08-.64,2.03Z"/>
        <path class="cls-1" d="M43.25,58.71v-6.3h.86l3.31,4.95v-4.95h.8v6.3h-.86l-3.31-4.95v4.95h-.8Z"/>
        <path class="cls-1" d="M61.16,58.71v-5.56h-2.08v-.74h4.99v.74h-2.08v5.56h-.83Z"/>
        <path class="cls-1" d="M68.35,55.64c0-1.05.28-1.86.84-2.46.56-.59,1.29-.89,2.17-.89.58,0,1.11.14,1.57.42.47.28.82.67,1.07,1.16.25.5.37,1.06.37,1.69s-.13,1.21-.39,1.71c-.26.5-.62.89-1.1,1.15-.47.26-.98.39-1.53.39-.59,0-1.12-.14-1.59-.43s-.82-.68-1.06-1.17-.36-1.02-.36-1.57ZM69.21,55.66c0,.76.2,1.36.61,1.79.41.44.92.66,1.54.66s1.14-.22,1.55-.66.61-1.07.61-1.88c0-.51-.09-.96-.26-1.34-.17-.38-.43-.68-.76-.89-.33-.21-.71-.32-1.12-.32-.59,0-1.1.2-1.52.61-.43.41-.64,1.08-.64,2.03Z"/>
        <path class="cls-1" d="M84.38,58.71l2.42-6.3h.9l2.58,6.3h-.95l-.73-1.91h-2.63l-.69,1.91h-.89ZM86.2,56.13h2.14l-.66-1.74c-.2-.53-.35-.97-.45-1.31-.08.4-.19.8-.34,1.2l-.69,1.85Z"/>
        <path class="cls-1" d="M99.27,56.5l.83.21c-.17.68-.49,1.21-.94,1.57-.45.36-1.01.54-1.67.54s-1.23-.14-1.66-.41c-.43-.28-.75-.68-.97-1.2-.22-.52-.33-1.09-.33-1.69,0-.66.13-1.23.38-1.72.25-.49.61-.86,1.07-1.11.46-.25.97-.38,1.53-.38.63,0,1.16.16,1.59.48s.73.77.9,1.35l-.82.19c-.15-.46-.36-.79-.64-1-.28-.21-.63-.31-1.05-.31-.48,0-.89.12-1.21.35-.32.23-.55.54-.69.93-.13.39-.2.79-.2,1.21,0,.54.08,1,.23,1.4.16.4.4.7.73.9.33.2.69.3,1.07.3.47,0,.86-.13,1.19-.4.32-.27.54-.67.66-1.2Z"/>
        <path class="cls-1" d="M106.56,58.71v-5.56h-2.08v-.74h4.99v.74h-2.08v5.56h-.83Z"/>
        <path class="cls-1" d="M114.3,58.71v-6.3h.83v6.3h-.83Z"/>
        <path class="cls-1" d="M120.18,55.64c0-1.05.28-1.86.84-2.46.56-.59,1.29-.89,2.17-.89.58,0,1.11.14,1.57.42.47.28.82.67,1.07,1.16.25.5.37,1.06.37,1.69s-.13,1.21-.39,1.71c-.26.5-.62.89-1.1,1.15-.47.26-.98.39-1.53.39-.59,0-1.12-.14-1.59-.43s-.82-.68-1.06-1.17-.36-1.02-.36-1.57ZM121.04,55.66c0,.76.2,1.36.61,1.79.41.44.92.66,1.54.66s1.14-.22,1.55-.66.61-1.07.61-1.88c0-.51-.09-.96-.26-1.34-.17-.38-.43-.68-.76-.89-.33-.21-.71-.32-1.12-.32-.59,0-1.1.2-1.52.61-.43.41-.64,1.08-.64,2.03Z"/>
        <path class="cls-1" d="M131.1,58.71v-6.3h.86l3.31,4.95v-4.95h.8v6.3h-.86l-3.31-4.95v4.95h-.8Z"/>
      </g>
      <g>
        <path class="cls-1" d="M35.35,30.58L23.62,0h4.33l9.76,26.16L47.43,0h4.48l-11.74,30.58h-4.82Z"/>
        <path class="cls-1" d="M84.53,30.58L96.12,0h4.66l11.66,30.58h-4.37l-2.78-7.68h-13.66l-2.86,7.68h-4.24ZM92.93,19.42h11.13l-5.57-15.45-5.56,15.45Z"/>
        <path class="cls-1" d="M63.33,27.06s7.74-7.62,8.93-8.82c1.96-1.96,5.68-5.9,4.77-10.89-1.07-5.92-6.51-7.01-6.51-7.01,0,0-6.28-1.5-12.49,1.74v4.11s3.17-2.74,9.24-2.68,6.17,4.88,6.14,5.71c-.06,1.61-.38,2.99-6.19,8.81-1.89,1.89-9.41,9.02-9.41,9.02v3.53h19.54v-3.53h-14.02Z"/>
      </g>
      <g>
        <g>
          <path class="cls-3" d="M56.19,41.26l-.03.03c-.16.14-.39.27-.68.39-.64.26-1.35.24-1.95-.06-.33-.16-.58-.41-.75-.75-.17-.33-.25-.74-.25-1.23,0-.39.07-.76.21-1.1.08-.2.2-.39.35-.55.15-.17.35-.31.6-.41s.54-.15.87-.15c.28,0,.53.05.77.15.23.1.42.23.54.4.11.14.21.34.28.57l.44-.12c-.09-.3-.21-.54-.35-.73-.16-.21-.39-.37-.68-.49-.3-.12-.63-.18-1-.18-.51,0-.96.11-1.35.31-.38.21-.68.52-.88.95-.21.43-.31.9-.31,1.39s.1.96.31,1.36c.21.4.51.71.92.92.41.21.87.32,1.37.32.37,0,.74-.07,1.09-.2.34-.13.67-.32,1-.57v-1.81h-2.03v.42h1.55v1.13Z"/>
          <path class="cls-3" d="M62.37,40.24c-.09-.08-.22-.16-.4-.25l-.3-.14.33-.04c.48-.07.84-.22,1.06-.46.23-.24.34-.53.34-.88,0-.27-.07-.52-.2-.74-.13-.22-.32-.37-.54-.46-.23-.09-.58-.13-1.04-.13h-2.24v5.08h.5v-2.34h.91c.19,0,.32,0,.41.03.12.03.24.08.35.15.12.07.24.2.38.38s.31.42.51.74l.67,1.05h.64l-.82-1.28c-.18-.27-.37-.5-.56-.68ZM61.49,39.46h-1.6v-1.94h1.77c.42,0,.73.09.92.27.2.18.31.41.31.69,0,.19-.05.37-.16.53-.1.16-.26.28-.46.36-.19.07-.45.1-.78.1Z"/>
          <path class="cls-3" d="M69.66,37.37c-.37-.22-.8-.33-1.27-.33-.71,0-1.3.24-1.75.71-.45.47-.68,1.14-.68,1.99,0,.45.1.88.29,1.27.19.4.48.71.85.94.37.23.8.34,1.28.34.44,0,.85-.11,1.23-.31.38-.21.67-.52.88-.92.21-.41.31-.87.31-1.39s-.1-.97-.3-1.37c-.2-.4-.48-.71-.86-.93ZM69.75,41.31c-.36.39-.82.59-1.37.59s-1-.2-1.36-.58c-.36-.38-.54-.91-.54-1.57,0-.82.19-1.42.57-1.77.37-.36.83-.54,1.34-.54.36,0,.7.09.99.28.3.19.52.45.67.79.15.33.23.72.23,1.17,0,.7-.18,1.25-.54,1.64Z"/>
          <path class="cls-3" d="M74.51,41.68c-.23-.13-.39-.32-.48-.55-.09-.23-.13-.57-.13-1.05v-2.95h-.5v2.95c0,.54.06.98.19,1.28.13.3.33.53.63.69.3.16.69.24,1.17.24s.88-.09,1.18-.28c.29-.18.5-.42.61-.71.11-.3.17-.71.17-1.23v-2.95h-.5v2.95c0,.69-.12,1.16-.35,1.41-.24.25-.63.38-1.17.38-.32,0-.59-.06-.81-.19Z"/>
          <path class="cls-3" d="M83.86,37.88c-.1-.2-.23-.36-.39-.47-.16-.11-.37-.19-.61-.23-.18-.03-.44-.05-.79-.05h-1.89v5.08h.5v-2.15h1.45c.71,0,1.21-.15,1.47-.43.27-.29.4-.65.4-1.07,0-.25-.05-.47-.15-.68ZM83.17,39.36c-.21.19-.55.28-1.03.28h-1.46v-2.09h1.45c.33,0,.55.02.68.05.21.06.37.17.5.35.12.17.19.38.19.62,0,.33-.11.6-.32.78Z"/>
        </g>
        <g>
          <rect class="cls-4" x="10.76" y="39.1" width="35.81" height="1.05"/>
          <rect class="cls-2" x="89.12" y="39.1" width="35.81" height="1.05"/>
        </g>
      </g>
    </g>
  </g>
</svg>